<svg xmlns="http://www.w3.org/2000/svg" width="278" height="44" viewBox="0 0 278 44">
<g>
<path d="M 245.97 35.82 C243.43,39.99 238.20,40.29 234.38,36.47 C231.34,33.43 231.49,32.80 236.00,29.77 C239.28,27.57 239.50,27.08 239.50,21.99 L 239.50 16.57 L 234.75 16.86 C230.06,17.15 230.00,17.11 230.00,14.12 C230.00,7.75 233.66,4.00 239.87,4.00 C244.14,4.00 246.97,7.78 248.22,15.14 C249.54,22.84 248.59,31.50 245.97,35.82 ZM 18.46 38.38 C15.20,39.63 11.85,38.94 9.45,36.55 C6.11,33.20 6.36,31.84 10.75,29.50 C13.79,27.88 14.56,26.86 14.82,24.11 C15.44,17.68 14.58,16.39 9.95,16.83 C7.68,17.05 5.47,16.84 5.04,16.36 C3.49,14.67 6.37,6.61 9.00,5.26 C13.31,3.05 18.14,4.06 20.58,7.70 C25.69,15.31 24.25,36.16 18.46,38.38 ZM 63.46 38.38 C60.20,39.63 56.85,38.94 54.45,36.55 C51.11,33.20 51.36,31.84 55.75,29.50 C58.79,27.88 59.56,26.86 59.82,24.11 C60.44,17.68 59.58,16.39 54.95,16.83 C52.68,17.05 50.49,16.84 50.07,16.36 C49.66,15.89 49.73,13.59 50.22,11.24 C51.17,6.78 54.53,4.00 59.02,4.00 C65.58,4.00 68.34,9.30 68.38,22.00 C68.41,31.94 66.87,37.07 63.46,38.38 ZM 43.32 35.20 C41.78,37.85 40.67,38.56 37.71,38.81 C34.74,39.06 33.52,38.58 31.48,36.39 C30.09,34.88 29.07,33.31 29.22,32.89 C29.38,32.47 31.08,31.06 33.00,29.77 C36.28,27.57 36.50,27.08 36.50,21.99 L 36.50 16.57 L 31.75 16.86 C27.31,17.13 27.00,16.99 27.00,14.72 C27.00,13.39 27.47,10.94 28.05,9.29 C29.92,3.93 37.94,2.17 41.79,6.27 C46.37,11.15 47.28,28.39 43.32,35.20 ZM 179.24 35.35 C176.64,39.81 171.11,40.30 167.48,36.39 C166.09,34.88 165.07,33.31 165.22,32.89 C165.38,32.47 167.07,31.06 169.00,29.77 C172.28,27.57 172.50,27.08 172.50,21.99 L 172.50 16.57 L 167.75 16.86 C163.31,17.13 163.00,16.99 163.00,14.72 C163.00,10.22 165.04,6.22 167.96,5.02 C172.50,3.13 176.16,4.09 178.65,7.80 C182.71,13.84 183.03,28.83 179.24,35.35 ZM 108.46 38.38 C105.18,39.64 101.84,38.94 99.38,36.47 C96.56,33.65 96.65,32.00 99.72,30.46 C104.38,28.11 105.10,26.86 104.80,21.62 L 104.50 16.56 L 99.75 16.85 C95.06,17.15 95.00,17.11 95.00,14.12 C95.00,4.50 105.57,0.23 110.65,7.80 C115.85,15.55 114.38,36.11 108.46,38.38 ZM 224.35 35.74 C221.70,39.29 218.83,40.14 215.47,38.40 C212.76,36.99 210.10,34.24 210.03,32.77 C210.01,32.37 211.74,31.15 213.88,30.06 C218.48,27.71 219.28,26.04 218.45,20.48 L 217.82 16.31 L 212.76 16.80 L 207.70 17.28 L 208.29 12.89 C209.02,7.47 212.59,4.00 217.47,4.00 C221.89,4.00 225.63,8.35 226.57,14.60 C227.67,21.97 226.53,32.81 224.35,35.74 ZM 200.16 36.33 C196.37,40.37 193.39,40.47 189.25,36.70 C186.04,33.78 186.46,31.79 190.75,29.50 C194.76,27.36 195.62,25.13 194.58,19.59 C194.02,16.59 193.81,16.47 189.91,16.84 C184.52,17.35 183.58,16.27 184.96,11.16 C187.73,0.86 200.57,1.88 202.58,12.57 C202.92,14.40 203.04,19.93 202.85,24.87 C202.55,32.62 202.18,34.18 200.16,36.33 ZM 133.08 36.42 C129.94,39.76 125.71,39.81 122.45,36.55 C119.11,33.20 119.36,31.84 123.75,29.50 C127.76,27.36 128.62,25.13 127.58,19.59 C127.02,16.59 126.81,16.47 122.91,16.84 C120.66,17.05 118.38,16.78 117.84,16.24 C116.33,14.73 118.69,7.33 121.25,5.54 C124.58,3.21 129.68,3.59 132.48,6.39 C135.52,9.43 136.29,13.66 135.85,24.87 C135.54,32.72 135.20,34.16 133.08,36.42 ZM 154.40 35.68 C151.56,39.50 146.28,40.03 143.37,36.80 C139.68,32.71 139.73,32.18 143.95,30.03 C148.46,27.73 149.77,24.68 148.36,19.76 C147.54,16.90 147.12,16.65 142.98,16.58 L 138.50 16.50 L 138.73 12.50 C139.20,4.38 148.28,0.98 153.37,7.03 C156.54,10.80 157.31,14.76 156.85,24.91 C156.57,31.03 156.01,33.51 154.40,35.68 ZM 270.79 35.00 C267.86,39.36 263.67,40.10 259.70,36.98 C256.01,34.07 256.32,31.87 260.75,29.50 C264.76,27.36 265.62,25.13 264.58,19.59 C264.02,16.59 263.81,16.47 259.91,16.84 C254.52,17.35 253.58,16.27 254.96,11.16 C257.00,3.58 264.26,1.54 269.56,7.06 C272.38,10.00 272.51,10.55 272.83,20.81 C273.13,30.68 272.97,31.77 270.79,35.00 ZM 88.47 35.57 C84.99,40.24 81.53,40.59 77.25,36.70 C74.07,33.81 74.45,31.63 78.47,29.71 C82.43,27.83 83.72,24.52 82.36,19.76 C81.54,16.90 81.12,16.65 76.98,16.58 L 72.50 16.50 L 72.73 12.50 C73.20,4.32 81.89,1.14 87.56,7.06 C90.46,10.09 90.50,10.28 90.50,21.49 C90.50,31.34 90.23,33.21 88.47,35.57 Z" fill="rgb(3,3,3)"/>
<path d="M 0.00 22.00 L 0.00 0.00 L 139.00 0.00 L 278.00 0.00 L 278.00 22.00 L 278.00 44.00 L 139.00 44.00 L 0.00 44.00 L 0.00 22.00 ZM 88.47 35.57 C90.23,33.21 90.50,31.34 90.50,21.49 C90.50,10.28 90.46,10.09 87.56,7.06 C81.89,1.14 73.20,4.32 72.73,12.50 L 72.50 16.50 L 76.98 16.58 C81.12,16.65 81.54,16.90 82.36,19.76 C83.72,24.52 82.43,27.83 78.47,29.71 C74.45,31.63 74.07,33.81 77.25,36.70 C81.53,40.59 84.99,40.24 88.47,35.57 ZM 200.16 36.33 C202.18,34.18 202.55,32.62 202.85,24.87 C203.04,19.93 202.92,14.40 202.58,12.57 C200.57,1.88 187.73,0.86 184.96,11.16 C183.58,16.27 184.52,17.35 189.91,16.84 C193.81,16.47 194.02,16.59 194.58,19.59 C195.62,25.13 194.76,27.36 190.75,29.50 C186.46,31.79 186.04,33.78 189.25,36.70 C193.39,40.47 196.37,40.37 200.16,36.33 ZM 224.35 35.74 C226.53,32.81 227.67,21.97 226.57,14.60 C225.63,8.35 221.89,4.00 217.47,4.00 C212.59,4.00 209.02,7.47 208.29,12.89 L 207.70 17.28 L 212.76 16.80 L 217.82 16.31 L 218.45 20.48 C219.28,26.04 218.48,27.71 213.88,30.06 C211.74,31.15 210.01,32.37 210.03,32.77 C210.10,34.24 212.76,36.99 215.47,38.40 C218.83,40.14 221.70,39.29 224.35,35.74 ZM 18.46 38.38 C24.25,36.16 25.69,15.31 20.58,7.70 C18.14,4.06 13.31,3.05 9.00,5.26 C6.37,6.61 3.49,14.67 5.04,16.36 C5.47,16.84 7.68,17.05 9.95,16.83 C14.58,16.39 15.44,17.68 14.82,24.11 C14.56,26.86 13.79,27.88 10.75,29.50 C6.36,31.84 6.11,33.20 9.45,36.55 C11.85,38.94 15.20,39.63 18.46,38.38 ZM 43.32 35.20 C47.28,28.39 46.37,11.15 41.79,6.27 C37.94,2.17 29.92,3.93 28.05,9.29 C27.47,10.94 27.00,13.39 27.00,14.72 C27.00,16.99 27.31,17.13 31.75,16.86 L 36.50 16.57 L 36.50 21.99 C36.50,27.08 36.28,27.57 33.00,29.77 C31.08,31.06 29.38,32.47 29.22,32.89 C29.07,33.31 30.09,34.88 31.48,36.39 C33.52,38.58 34.74,39.06 37.71,38.81 C40.67,38.56 41.78,37.85 43.32,35.20 ZM 63.46 38.38 C66.87,37.07 68.41,31.94 68.38,22.00 C68.34,9.30 65.58,4.00 59.02,4.00 C54.53,4.00 51.17,6.78 50.22,11.24 C49.73,13.59 49.66,15.89 50.07,16.36 C50.49,16.84 52.68,17.05 54.95,16.83 C59.58,16.39 60.44,17.68 59.82,24.11 C59.56,26.86 58.79,27.88 55.75,29.50 C51.36,31.84 51.11,33.20 54.45,36.55 C56.85,38.94 60.20,39.63 63.46,38.38 ZM 108.46 38.38 C114.38,36.11 115.85,15.55 110.65,7.80 C105.57,0.23 95.00,4.50 95.00,14.12 C95.00,17.11 95.06,17.15 99.75,16.85 L 104.50 16.56 L 104.80 21.62 C105.10,26.86 104.38,28.11 99.72,30.46 C96.65,32.00 96.56,33.65 99.38,36.47 C101.84,38.94 105.18,39.64 108.46,38.38 ZM 133.08 36.42 C135.20,34.16 135.54,32.72 135.85,24.87 C136.29,13.66 135.52,9.43 132.48,6.39 C129.68,3.59 124.58,3.21 121.25,5.54 C118.69,7.33 116.33,14.73 117.84,16.24 C118.38,16.78 120.66,17.05 122.91,16.84 C126.81,16.47 127.02,16.59 127.58,19.59 C128.62,25.13 127.76,27.36 123.75,29.50 C119.36,31.84 119.11,33.20 122.45,36.55 C125.71,39.81 129.94,39.76 133.08,36.42 ZM 154.40 35.68 C156.01,33.51 156.57,31.03 156.85,24.91 C157.31,14.76 156.54,10.80 153.37,7.03 C148.28,0.98 139.20,4.38 138.73,12.50 L 138.50 16.50 L 142.98 16.58 C147.12,16.65 147.54,16.90 148.36,19.76 C149.77,24.68 148.46,27.73 143.95,30.03 C139.73,32.18 139.68,32.71 143.37,36.80 C146.28,40.03 151.56,39.50 154.40,35.68 ZM 179.24 35.35 C183.03,28.83 182.71,13.84 178.65,7.80 C176.16,4.09 172.50,3.13 167.96,5.02 C165.04,6.22 163.00,10.22 163.00,14.72 C163.00,16.99 163.31,17.13 167.75,16.86 L 172.50 16.57 L 172.50 21.99 C172.50,27.08 172.28,27.57 169.00,29.77 C167.07,31.06 165.38,32.47 165.22,32.89 C165.07,33.31 166.09,34.88 167.48,36.39 C171.11,40.30 176.64,39.81 179.24,35.35 ZM 245.97 35.82 C248.59,31.50 249.54,22.84 248.22,15.14 C246.97,7.78 244.14,4.00 239.87,4.00 C233.66,4.00 230.00,7.75 230.00,14.12 C230.00,17.11 230.06,17.15 234.75,16.86 L 239.50 16.57 L 239.50 21.99 C239.50,27.08 239.28,27.57 236.00,29.77 C231.49,32.80 231.34,33.43 234.38,36.47 C238.20,40.29 243.43,39.99 245.97,35.82 ZM 270.79 35.00 C272.97,31.77 273.13,30.68 272.83,20.81 C272.51,10.55 272.38,10.00 269.56,7.06 C264.26,1.54 257.00,3.58 254.96,11.16 C253.58,16.27 254.52,17.35 259.91,16.84 C263.81,16.47 264.02,16.59 264.58,19.59 C265.62,25.13 264.76,27.36 260.75,29.50 C256.32,31.87 256.01,34.07 259.70,36.98 C263.67,40.10 267.86,39.36 270.79,35.00 Z" fill="rgb(251,251,251)"/>
</g>
</svg>